Coordinates
version=1
nRows=7
nColumns=63
inDegrees=yes

Units are S.I. units (second, meters, Newtons, ...)
If the header above contains a line with 'inDegrees', this indicates whether rotational values are in degrees (yes) or radians (no).

endheader
time	pelvis_tilt	pelvis_list	pelvis_rotation	pelvis_tx	pelvis_ty	pelvis_tz	hip_flexion_r	hip_adduction_r	hip_rotation_r	knee_angle_r	knee_angle_r_beta	ankle_angle_r	subtalar_angle_r	mtp_angle_r	hip_flexion_l	hip_adduction_l	hip_rotation_l	knee_angle_l	knee_angle_l_beta	ankle_angle_l	subtalar_angle_l	mtp_angle_l	L5_S1_Flex_Ext	L5_S1_Lat_Bending	L5_S1_axial_rotation	L4_L5_Flex_Ext	L4_L5_Lat_Bending	L4_L5_axial_rotation	L3_L4_Flex_Ext	L3_L4_Lat_Bending	L3_L4_axial_rotation	L2_L3_Flex_Ext	L2_L3_Lat_Bending	L2_L3_axial_rotation	L1_L2_Flex_Ext	L1_L2_Lat_Bending	L1_L2_axial_rotation	L1_T12_Flex_Ext	L1_T12_Lat_Bending	L1_T12_axial_rotation	Abs_r3	Abs_r2	Abs_r1	Abs_t1	Abs_t2	neck_flexion	neck_bending	neck_rotation	arm_flex_r	arm_add_r	arm_rot_r	elbow_flex_r	pro_sup_r	wrist_flex_r	wrist_dev_r	arm_flex_l	arm_add_l	arm_rot_l	elbow_flex_l	pro_sup_l	wrist_flex_l	wrist_dev_l
      0.00000000	     -3.03169194	     -4.49970067	    106.37880902	      0.06119976	      0.95902235	      0.52014151	      0.03713251	     -1.61892683	    -16.34806703	      9.82461962	      0.17147196	     24.82138203	     10.97171641	      0.00000000	     -0.23843941	      2.04011023	      8.03935033	      1.95836483	      0.03417991	     25.72269281	      4.17565617	      0.00000000	      0.08426228	      0.04256606	     -0.72989102	      0.15648348	      0.05661286	     -0.77550921	      0.13843450	      0.10349512	     -0.77550921	      0.09630336	      0.10349512	     -0.63865465	      0.07824595	      0.08680071	     -0.59303646	      0.04814747	      0.06593483	     -0.54741827	      0.60187704	      0.48151580	     -4.05943491	      0.00000000	      0.00000000	     25.74601006	      0.93804986	     -2.56392347	      7.32804505	    -11.12807636	     54.76898778	     53.13544832	      1.03143140	    -26.77831463	     29.56306458	     11.71188231	     -6.51864782	     53.06025800	     47.85022805	     86.58706301	     20.84424235	     14.31020657
      0.02127660	     -3.41750683	     -4.20182240	    105.26306261	      0.06351098	      0.95954338	      0.51721954	     -0.44570586	     -1.81699069	    -15.07437603	      9.42177870	      0.16444106	     25.45563913	     11.73335764	      0.00000000	     -1.06692457	      2.27871566	      7.80985758	      1.45380493	      0.02537368	     25.67408742	      3.17505777	      0.00000000	      0.07581152	     -0.00428087	     -0.52175440	      0.14078957	     -0.00569356	     -0.55436405	      0.12455075	     -0.01040851	     -0.55436405	      0.08664499	     -0.01040851	     -0.45653510	      0.07039858	     -0.00872955	     -0.42392545	      0.04331870	     -0.00663107	     -0.39131580	      0.54151410	     -0.04842608	     -2.90184143	      0.00000000	      0.00000000	     25.56025287	      1.07558006	     -3.01641930	      7.39003309	    -11.14063996	     56.40480525	     52.79810369	      1.15094040	    -24.74242939	     28.43076920	     11.97575458	     -6.60771735	     53.35383606	     47.67694021	     86.65966280	     22.27065165	     15.98741927
      0.04255319	     -3.63495331	     -4.03597350	    104.22052874	      0.06522567	      0.95985125	      0.51499347	     -0.60291584	     -1.93849850	    -13.59281319	      9.31953150	      0.16265651	     25.93743676	     11.81643977	      0.00000000	     -1.60624327	      2.45708729	      8.19315374	      1.13367646	      0.01978639	     25.48227825	      1.28791626	      0.00000000	      0.08017172	     -0.03274777	     -0.33877730	      0.14888690	     -0.04355454	     -0.35995088	      0.13171412	     -0.07962294	     -0.35995088	      0.09162826	     -0.07962294	     -0.29643014	      0.07444746	     -0.06677926	     -0.27525655	      0.04581012	     -0.05072630	     -0.25408297	      0.57265859	     -0.37044937	     -1.88417770	      0.00000000	      0.00000000	     25.43329994	      1.10006303	     -3.55832324	      7.69835564	    -11.49118338	     58.80542293	     52.38283287	      1.27587085	    -20.29800717	     26.61740907	     11.78883993	     -6.51208883	     52.75101228	     47.52743537	     86.57361747	     23.42150546	     17.40586506
      0.06382979	     -3.73440447	     -3.90287262	    104.03118480	      0.06557575	      0.96009220	      0.51330924	     -0.93123564	     -1.87754306	    -12.43305232	      8.95226394	      0.15624648	     26.11737667	     11.00567267	      0.00000000	     -1.97068667	      2.54655724	     10.65172443	      0.94365837	      0.01646995	     24.89230026	     -2.50001448	      0.00000000	      0.08848219	     -0.04235266	     -0.33980226	      0.16432028	     -0.05632904	     -0.36103990	      0.14536740	     -0.10297625	     -0.36103990	      0.10112630	     -0.10297625	     -0.29732697	      0.08216457	     -0.08636554	     -0.27608933	      0.05055873	     -0.06560427	     -0.25485169	      0.63201947	     -0.47910174	     -1.88987821	      0.00000000	      0.00000000	     25.16312165	      1.04246004	     -3.44621481	      7.99096668	    -11.72159310	     60.70451151	     52.08581417	      1.37454331	    -17.36832755	     25.50768608	     11.46544971	     -6.74767614	     52.56839365	     47.84799864	     86.73252675	     23.31231196	     17.42780547
      0.08510638	     -3.83566399	     -3.81050515	    103.47129248	      0.06613587	      0.96030481	      0.51200374	     -1.08703740	     -1.91013316	    -11.17184605	      8.76713611	      0.15301539	     26.21889909	     10.43050813	      0.00000000	     -2.26859668	      2.66743208	     10.95505119	      0.80877913	      0.01411586	     24.60140878	     -3.90541413	      0.00000000	      0.09020971	     -0.05107496	     -0.21541791	      0.16752846	     -0.06792970	     -0.22888153	      0.14820554	     -0.12418366	     -0.22888153	      0.10310068	     -0.12418366	     -0.18849067	      0.08376874	     -0.10415206	     -0.17502705	      0.05154583	     -0.07911511	     -0.16156343	      0.64435895	     -0.57777017	     -1.19808977	      0.00000000	      0.00000000	     24.99356533	      0.83179514	     -3.68237655	      7.57277061	    -11.76517328	     60.41307160	     52.12760501	      1.41260827	    -16.92836855	     25.24601382	     11.33158514	     -6.79249159	     52.76939721	     47.89920934	     86.57528730	     22.97243094	     17.24201532
      0.10638298	     -3.89265469	     -3.76323421	    103.11203775	      0.06637399	      0.96045595	      0.51115841	     -1.18585410	     -1.94166758	    -10.43136979	      8.64330616	      0.15085415	     26.29383593	     10.17782803	      0.00000000	     -2.42437711	      2.74903655	     10.33960448	      0.78579380	      0.01371469	     24.62265351	     -3.72845185	      0.00000000	      0.09143686	     -0.05421889	     -0.13206339	      0.16980739	     -0.07211113	     -0.14031735	      0.15022162	     -0.13182782	     -0.14031735	      0.10450319	     -0.13182782	     -0.11555546	      0.08490827	     -0.11056317	     -0.10730150	      0.05224702	     -0.08398506	     -0.09904754	      0.65312434	     -0.61333496	     -0.73449693	      0.00000000	      0.00000000	     24.86676059	      0.55353354	     -3.81199337	      7.18018993	    -11.79335395	     59.94048103	     52.27095820	      1.42494893	    -17.14710312	     25.14288564	     11.18135374	     -6.90083381	     53.04866288	     48.05763651	     86.50432216	     22.39726601	     16.67156313
      0.12765957	     -3.97998741	     -3.77086560	    102.96216203	      0.06626635	      0.96058982	      0.51067646	     -1.23234279	     -2.05198022	    -10.25154568	      8.57620734	      0.14968306	     26.40208467	     10.31362082	      0.00000000	     -2.46885106	      2.85940840	      8.50000029	      0.82773354	      0.01444668	     25.01145690	     -1.48932700	      0.00000000	      0.09664555	     -0.06273414	     -0.10052140	      0.17948045	     -0.08343641	     -0.10680399	      0.15877897	     -0.15253179	     -0.10680399	      0.11045620	     -0.15253179	     -0.08795623	      0.08974506	     -0.12792746	     -0.08167364	      0.05522327	     -0.09717518	     -0.07539105	      0.69032950	     -0.70966114	     -0.55906989	      0.00000000	      0.00000000	     24.71343540	      0.27566354	     -3.92562625	      6.96204411	    -11.77857339	     59.72423641	     52.24082016	      1.41752704	    -17.04341924	     25.21625446	     10.96267103	     -7.04651476	     53.14356768	     48.35309778	     86.33478820	     21.77731108	     16.65857033
